# xmcd
# 
# Track frame offsets:
#     150
#     23558
#     43524
#     61557
#     82480
#     96680
#     114839
#     134510
#     160578
# 
# Disc length: 2418
# 
# Revision: 0
# Processed by: cddbd v1.5.2PL0 Copyright (c) Steve Scherf et al.
# Submitted via: fre:ac v1.0.17
# 
DISCID=6e097009
DTITLE=Kasa Chorych - W Filharmonii [CD2)
DYEAR=2015
DGENRE=Blues
TTITLE0=Obserwator
TTITLE1=Wolny wybor
TTITLE2=Przez jedna noc
TTITLE3=Bialy blues
TTITLE4=Niespodzianka
TTITLE5=Dokad mnie prowadzisz?
TTITLE6=O czlowieku
TTITLE7=Kasa Chorych
TTITLE8=Ameryka
EXTD=
EXTT0=
EXTT1=
EXTT2=
EXTT3=
EXTT4=
EXTT5=
EXTT6=
EXTT7=
EXTT8=
PLAYORDER=
